<svg width="37" height="36" viewBox="0 0 37 36" xmlns="http://www.w3.org/2000/svg">
    <path d="M18.44 35.242c9.046 0 16.5-7.468 16.5-16.509 0-9.023-7.471-16.49-16.5-16.49-9.045 0-16.5 7.467-16.5 16.49 0 9.041 7.472 16.51 16.5 16.51zm.278-13.944c.745 0 1.203-.459 1.203-1.28l.23-9.612c.019-.802-.612-1.414-1.452-1.414-.86 0-1.453.592-1.434 1.414l.21 9.612c.02.821.46 1.28 1.243 1.28zm0 5.694c-.956 0-1.777-.783-1.777-1.72 0-.955.802-1.72 1.777-1.72.974 0 1.777.746 1.777 1.72 0 .956-.822 1.72-1.777 1.72z" fill="#FFF" fill-rule="evenodd"/>
</svg>
