<svg xmlns="http://www.w3.org/2000/svg" width="36" height="36" viewBox="0 0 36 36">
    <g fill="none" fill-rule="evenodd">
        <g fill="#F9F9FC">
            <g>
                <g>
                    <g>
                        <path d="M15 0c8.284 0 15 6.716 15 15 0 8.284-6.716 15-15 15-8.284 0-15-6.716-15-15C0 6.716 6.716 0 15 0zm6.557 7.439c-.365 0-.731.226-.993.644L12.812 20.4l-4.265-5.325c-.274-.304-.566-.406-.91-.406-.61 0-1.132.487-1.132 1.132 0 .331.14.645.349.906l4.79 5.854c.401.453.75.644 1.22.644s.854-.209 1.15-.662l8.38-13.136c.191-.261.348-.592.348-.906 0-.662-.575-1.062-1.185-1.062z" transform="translate(-550 -76) translate(540 64) translate(10 12) translate(3 3)"/>
                    </g>
                </g>
            </g>
        </g>
    </g>
</svg>
