<svg xmlns="http://www.w3.org/2000/svg" width="36" height="36" viewBox="0 0 36 36">
    <g fill="none" fill-rule="evenodd">
        <g fill="#FFF">
            <g>
                <g>
                    <g>
                        <path d="M16.5 33.726c9.046 0 16.5-7.467 16.5-16.508C33 8.194 25.528.726 16.5.726 7.454.726 0 8.194 0 17.218c0 9.04 7.472 16.508 16.5 16.508zM13.891 9.211c0-.962.773-1.735 1.737-1.735.975 0 1.73.773 1.73 1.735 0 .962-.755 1.72-1.73 1.72-.964 0-1.737-.758-1.737-1.72M12 24.609c0-.488.396-.882.9-.882h2.27v-8.166h-2.064c-.506 0-.9-.379-.9-.882 0-.472.394-.865.9-.865h3.026c.63 0 .96.44.96 1.088v8.825h2.27c.503 0 .897.394.897.882 0 .489-.394.867-.898.867H12.9c-.503 0-.899-.378-.899-.867" transform="translate(-691.000000, -142.000000) translate(681.000000, 130.000000) translate(10.000000, 12.000000) translate(1.500000, 1.515723)"/>
                    </g>
                </g>
            </g>
        </g>
    </g>
</svg>
