<svg xmlns="http://www.w3.org/2000/svg" width="36" height="36" viewBox="0 0 36 36">
    <g fill="none" fill-rule="evenodd">
        <g fill="#FFF">
            <g>
                <g>
                    <g>
                        <path d="M16.5 33.726c9.046 0 16.5-7.467 16.5-16.508C33 8.194 25.528.726 16.5.726 7.454.726 0 8.194 0 17.218c0 9.04 7.472 16.508 16.5 16.508zm-5.77-9.166c-.677 0-1.197-.538-1.197-1.196 0-.33.122-.624.347-.832l5.096-5.114-5.096-5.113c-.225-.208-.347-.503-.347-.832 0-.676.52-1.179 1.196-1.179.33 0 .607.122.832.347l5.114 5.096 5.13-5.096c.243-.26.52-.381.832-.381.659 0 1.196.537 1.196 1.196 0 .33-.104.59-.364.832l-5.113 5.13 5.113 5.08c.226.242.347.52.347.866 0 .658-.52 1.196-1.196 1.196-.347 0-.641-.139-.867-.364L16.675 19.1l-5.096 5.096c-.208.225-.52.364-.85.364z" transform="translate(-1051 -212) translate(1041 200) translate(10 12) translate(1.5 .766)"/>
                    </g>
                </g>
            </g>
        </g>
    </g>
</svg>
